<svg xmlns="http://www.w3.org/2000/svg" viewBox="0 0 32 40" x="0px" y="0px"><title>07</title><g data-name="7"><path d="M27.3,15.58,16.72,26.69a1,1,0,0,1-1.45,0L4.7,15.58A6.28,6.28,0,0,1,4.7,7l.18-.19A5.77,5.77,0,0,1,9.06,5h0a5.77,5.77,0,0,1,4.17,1.78L14.6,8.13l-2,2A1,1,0,1,0,14,11.57l4.76-4.8A5.77,5.77,0,0,1,22.91,5h0a5.77,5.77,0,0,1,4.18,1.82L27.3,7A6.28,6.28,0,0,1,27.3,15.58Z"/></g><text x="0" y="47" fill="#000000" font-size="5px" font-weight="bold" font-family="'Helvetica Neue', Helvetica, Arial-Unicode, Arial, Sans-serif">Created by pixiodesign</text><text x="0" y="52" fill="#000000" font-size="5px" font-weight="bold" font-family="'Helvetica Neue', Helvetica, Arial-Unicode, Arial, Sans-serif">from the Noun Project</text></svg>