<svg xmlns="http://www.w3.org/2000/svg" viewBox="0 0 32 40" x="0px" y="0px"><title>07</title><g data-name="7"><path d="M27.3,7l-.18-.19A5.77,5.77,0,0,0,22.94,5h0a5.77,5.77,0,0,0-4.17,1.78L16,9.56,13.26,6.78A5.77,5.77,0,0,0,9.09,5h0A5.77,5.77,0,0,0,4.88,6.82L4.7,7a6.28,6.28,0,0,0,0,8.56L15.28,26.69a1,1,0,0,0,1.45,0L27.3,15.58A6.28,6.28,0,0,0,27.3,7ZM25.85,14.2,16,24.55,6.15,14.2a4.26,4.26,0,0,1,0-5.81l.18-.19A3.79,3.79,0,0,1,9.07,7h0a3.79,3.79,0,0,1,2.74,1.18L14.61,11l-1.3,1.33a1,1,0,1,0,1.43,1.4l5.44-5.55A3.79,3.79,0,0,1,22.91,7h0a3.79,3.79,0,0,1,2.75,1.2l.18.19A4.26,4.26,0,0,1,25.85,14.2Z"/></g><text x="0" y="47" fill="#000000" font-size="5px" font-weight="bold" font-family="'Helvetica Neue', Helvetica, Arial-Unicode, Arial, Sans-serif">Created by pixiodesign</text><text x="0" y="52" fill="#000000" font-size="5px" font-weight="bold" font-family="'Helvetica Neue', Helvetica, Arial-Unicode, Arial, Sans-serif">from the Noun Project</text></svg>