<svg xmlns="http://www.w3.org/2000/svg" xmlns:xlink="http://www.w3.org/1999/xlink" version="1.1" x="0px" y="0px" viewBox="0 0 512 640" style="enable-background:new 0 0 512 512;" xml:space="preserve"><style type="text/css">
	.st0{fill:#010101;}
</style><path class="st0" d="M375.1,378.2c-3.5,0-6.8-1.3-9.6-3.8l-0.7-0.6l-26.7-44.7c-1.6-1.3-3.6-2-5.7-2H149.9  c-15,0-27.3-12.2-27.3-27.3V172.5c0-15,12.2-27.3,27.3-27.3h212.2c15,0,27.3,12.2,27.3,27.3V364c0,5.7-3.3,10.7-8.5,13  C379,377.8,377,378.2,375.1,378.2z M374.6,365.5c0.5,0.2,0.9,0.1,1.2,0c0.4-0.2,1-0.6,1-1.5V172.5c0-8.1-6.6-14.7-14.7-14.7H149.9  c-8.1,0-14.7,6.6-14.7,14.7v127.4c0,8.1,6.6,14.7,14.7,14.7h182.6c5.5,0,10.8,2.1,14.8,5.8l0.7,0.6L374.6,365.5z"/><path class="st0" d="M334.8,203H177.2c-3.5,0-6.3-2.8-6.3-6.3v0c0-3.5,2.8-6.3,6.3-6.3h157.6c3.5,0,6.3,2.8,6.3,6.3  v0C341.1,200.2,338.3,203,334.8,203z"/><path class="st0" d="M334.8,244.3H177.2c-3.5,0-6.3-2.8-6.3-6.3v0c0-3.5,2.8-6.3,6.3-6.3h157.6  c3.5,0,6.3,2.8,6.3,6.3v0C341.1,241.5,338.3,244.3,334.8,244.3z"/><path class="st0" d="M286.4,285.6H177.2c-3.5,0-6.3-2.8-6.3-6.3l0,0c0-3.5,2.8-6.3,6.3-6.3h109.2  c3.5,0,6.3,2.8,6.3,6.3l0,0C292.7,282.8,289.9,285.6,286.4,285.6z"/><text x="0" y="527" fill="#000000" font-size="5px" font-weight="bold" font-family="'Helvetica Neue', Helvetica, Arial-Unicode, Arial, Sans-serif">Created by CreativeCube</text><text x="0" y="532" fill="#000000" font-size="5px" font-weight="bold" font-family="'Helvetica Neue', Helvetica, Arial-Unicode, Arial, Sans-serif">from the Noun Project</text></svg>